<svg width="133" height="41" viewBox="0 0 133 41" fill="none" xmlns="http://www.w3.org/2000/svg">
<path d="M0.232955 31.5217V9.15803H6.43537V31.5217H0.232955ZM3.34872 6.27521C2.42661 6.27521 1.63554 5.96946 0.975497 5.35795C0.325166 4.73674 0 3.9942 0 3.13033C0 2.27616 0.325166 1.54332 0.975497 0.93182C1.63554 0.310607 2.42661 0 3.34872 0C4.27083 0 5.05706 0.310607 5.70739 0.93182C6.36742 1.54332 6.69744 2.27616 6.69744 3.13033C6.69744 3.9942 6.36742 4.73674 5.70739 5.35795C5.05706 5.96946 4.27083 6.27521 3.34872 6.27521Z" fill="#8257E5"/>
<path d="M21.4791 40.3739C19.4699 40.3739 17.747 40.0973 16.3105 39.544C14.8836 39.0005 13.748 38.2579 12.9035 37.3164C12.059 36.3749 11.5106 35.3169 11.2583 34.1424L16.9948 33.3707C17.1695 33.8172 17.4461 34.2346 17.8247 34.6229C18.2032 35.0111 18.7031 35.3217 19.3243 35.5547C19.9552 35.7973 20.722 35.9187 21.6247 35.9187C22.9739 35.9187 24.0853 35.5887 24.9589 34.9286C25.8422 34.2783 26.2838 33.1863 26.2838 31.6527V27.5614H26.0218C25.75 28.1826 25.3423 28.7699 24.7987 29.3232C24.2552 29.8764 23.5563 30.3278 22.7021 30.6772C21.848 31.0266 20.8288 31.2014 19.6446 31.2014C17.9654 31.2014 16.4366 30.8131 15.0583 30.0366C13.6897 29.2504 12.5977 28.0516 11.7824 26.4403C10.9768 24.8194 10.574 22.7713 10.574 20.2962C10.574 17.7628 10.9865 15.6468 11.8115 13.9482C12.6366 12.2495 13.7334 10.978 15.102 10.1335C16.4803 9.28906 17.9897 8.86683 19.6301 8.86683C20.8822 8.86683 21.9305 9.08038 22.7749 9.50746C23.6194 9.92484 24.2989 10.449 24.8133 11.0799C25.3374 11.7011 25.7403 12.3126 26.0218 12.9144H26.2547V9.15803H32.4134V31.7401C32.4134 33.6425 31.9475 35.2344 31.0157 36.5156C30.0839 37.7969 28.7929 38.7578 27.1428 39.3984C25.5025 40.0488 23.6146 40.3739 21.4791 40.3739ZM21.6102 26.5423C22.6099 26.5423 23.4544 26.2947 24.1436 25.7997C24.8424 25.295 25.3763 24.5767 25.7451 23.6449C26.1237 22.7034 26.3129 21.5774 26.3129 20.267C26.3129 18.9567 26.1285 17.821 25.7597 16.8601C25.3908 15.8894 24.857 15.1372 24.1581 14.6033C23.4593 14.0695 22.6099 13.8026 21.6102 13.8026C20.591 13.8026 19.732 14.0792 19.0331 14.6325C18.3343 15.176 17.8052 15.9331 17.4461 16.9038C17.087 17.8744 16.9074 18.9955 16.9074 20.267C16.9074 21.558 17.087 22.6742 17.4461 23.6158C17.815 24.5476 18.344 25.2707 19.0331 25.7852C19.732 26.2899 20.591 26.5423 21.6102 26.5423Z" fill="#8257E5"/>
<path d="M40.3339 17.0202V31.5217H38.5576V9.15803H40.2902V12.696H40.4649C40.9891 11.541 41.8287 10.614 42.9838 9.91513C44.1388 9.21627 45.5123 8.86683 47.1041 8.86683C48.6086 8.86683 49.9287 9.18715 51.0644 9.82777C52.2097 10.4684 53.1027 11.3808 53.7433 12.565C54.3937 13.7395 54.7188 15.142 54.7188 16.7727V31.5217H52.9426V16.8455C52.9426 14.9431 52.3747 13.4143 51.2391 12.2592C50.1131 11.0945 48.6232 10.5121 46.7693 10.5121C45.5268 10.5121 44.4203 10.7839 43.4497 11.3274C42.479 11.871 41.7171 12.6329 41.1638 13.6133C40.6105 14.5839 40.3339 15.7196 40.3339 17.0202Z" fill="#8257E5"/>
<path d="M70.8218 31.9876C68.8029 31.9876 67.046 31.4877 65.5512 30.4879C64.0564 29.4882 62.9014 28.1196 62.086 26.3821C61.2707 24.6447 60.863 22.6645 60.863 20.4418C60.863 18.2093 61.2707 16.2195 62.086 14.4723C62.9111 12.7251 64.0419 11.3468 65.4784 10.3374C66.915 9.32789 68.5554 8.82315 70.3996 8.82315C71.6517 8.82315 72.8359 9.07552 73.9521 9.58026C75.0781 10.0753 76.0682 10.7936 76.9223 11.7351C77.7862 12.6766 78.4608 13.8123 78.9461 15.142C79.4411 16.4718 79.6887 17.9666 79.6887 19.6264V20.733H61.9841V19.1168H77.9124C77.9124 17.4959 77.5824 16.035 76.9223 14.7344C76.2623 13.4337 75.3644 12.4 74.2288 11.6332C73.0931 10.8664 71.8167 10.483 70.3996 10.483C68.9145 10.483 67.5896 10.9003 66.4248 11.7351C65.2697 12.5601 64.3525 13.6764 63.673 15.0838C63.0033 16.4912 62.6539 18.0637 62.6247 19.8011V20.5291C62.6247 22.3928 62.9499 24.0671 63.6002 25.5522C64.2603 27.0276 65.2018 28.1972 66.4248 29.0611C67.6478 29.9152 69.1135 30.3423 70.8218 30.3423C72.0448 30.3423 73.0883 30.1385 73.9521 29.7308C74.8257 29.3134 75.5392 28.8087 76.0924 28.2166C76.6457 27.6245 77.0631 27.0518 77.3446 26.4986L78.9607 27.1538C78.6209 27.9012 78.0919 28.6486 77.3737 29.396C76.6651 30.1336 75.7624 30.75 74.6656 31.245C73.5785 31.7401 72.2972 31.9876 70.8218 31.9876Z" fill="#8257E5"/>
<path d="M90.6812 31.5217L83.9838 9.15803H85.8474L91.613 28.9155H91.7732L97.5534 9.15803H99.4024L105.168 28.9009H105.314L111.079 9.15803H112.943L106.245 31.5217H104.265L98.558 12.0554H98.3687L92.6613 31.5217H90.6812Z" fill="#8257E5"/>
<path d="M132.686 13.9773L131.041 14.4141C130.778 13.5987 130.405 12.895 129.919 12.3029C129.434 11.7108 128.823 11.2546 128.085 10.9343C127.357 10.6043 126.483 10.4393 125.464 10.4393C123.824 10.4393 122.479 10.8469 121.431 11.6623C120.393 12.4776 119.873 13.5405 119.873 14.8509C119.873 15.9186 120.228 16.8018 120.936 17.5007C121.645 18.1899 122.727 18.714 124.183 19.0732L127.619 19.9322C129.386 20.369 130.715 21.0775 131.608 22.0579C132.501 23.0285 132.948 24.237 132.948 25.6832C132.948 26.916 132.613 28.0079 131.943 28.9592C131.274 29.9104 130.347 30.6529 129.162 31.1868C127.988 31.7206 126.619 31.9876 125.057 31.9876C122.97 31.9876 121.256 31.5023 119.917 30.5316C118.578 29.5513 117.718 28.1487 117.34 26.3239L119.043 25.8871C119.364 27.343 120.029 28.4544 121.038 29.2212C122.057 29.9783 123.392 30.3569 125.042 30.3569C126.867 30.3569 128.337 29.925 129.454 29.0611C130.58 28.1972 131.142 27.0907 131.142 25.7415C131.142 24.7126 130.812 23.8439 130.152 23.1353C129.492 22.4267 128.493 21.9074 127.153 21.5774L123.586 20.7038C121.761 20.2573 120.393 19.5439 119.48 18.5636C118.568 17.5735 118.112 16.3554 118.112 14.9091C118.112 13.7055 118.427 12.6475 119.058 11.7351C119.689 10.8227 120.558 10.1093 121.664 9.59482C122.771 9.08037 124.037 8.82315 125.464 8.82315C127.357 8.82315 128.9 9.26965 130.094 10.1626C131.288 11.0556 132.152 12.3272 132.686 13.9773Z" fill="#8257E5"/>
</svg>
