<svg width="134" height="41" viewBox="0 0 134 41" fill="none" xmlns="http://www.w3.org/2000/svg">
<path d="M0.475142 32V9.63636H6.67756V32H0.475142ZM3.59091 6.75355C2.6688 6.75355 1.87772 6.44779 1.21768 5.83629C0.567353 5.21508 0.242188 4.47253 0.242188 3.60866C0.242188 2.75449 0.567353 2.02166 1.21768 1.41015C1.87772 0.788939 2.6688 0.478333 3.59091 0.478333C4.51302 0.478333 5.29924 0.788939 5.94957 1.41015C6.60961 2.02166 6.93963 2.75449 6.93963 3.60866C6.93963 4.47253 6.60961 5.21508 5.94957 5.83629C5.29924 6.44779 4.51302 6.75355 3.59091 6.75355Z" fill="#170c41"/>
<path d="M21.7213 40.8523C19.7121 40.8523 17.9892 40.5756 16.5526 40.0224C15.1258 39.4788 13.9901 38.7363 13.1457 37.7947C12.3012 36.8532 11.7528 35.7952 11.5004 34.6207L17.2369 33.8491C17.4117 34.2956 17.6883 34.7129 18.0669 35.1012C18.4454 35.4895 18.9453 35.8001 19.5665 36.033C20.1974 36.2757 20.9642 36.397 21.8669 36.397C23.2161 36.397 24.3275 36.067 25.2011 35.407C26.0844 34.7566 26.526 33.6647 26.526 32.131V28.0398H26.2639C25.9922 28.661 25.5845 29.2482 25.0409 29.8015C24.4974 30.3548 23.7985 30.8061 22.9443 31.1555C22.0902 31.505 21.071 31.6797 19.8868 31.6797C18.2076 31.6797 16.6788 31.2914 15.3005 30.5149C13.9319 29.7287 12.8399 28.5299 12.0246 26.9187C11.219 25.2977 10.8161 23.2496 10.8161 20.7745C10.8161 18.2411 11.2287 16.1251 12.0537 14.4265C12.8788 12.7279 13.9756 11.4563 15.3442 10.6119C16.7225 9.7674 18.2319 9.34517 19.8722 9.34517C21.1244 9.34517 22.1727 9.55871 23.0171 9.98579C23.8616 10.4032 24.541 10.9273 25.0555 11.5582C25.5796 12.1794 25.9825 12.791 26.2639 13.3928H26.4969V9.63636H32.6556V32.2184C32.6556 34.1209 32.1897 35.7127 31.2579 36.994C30.3261 38.2752 29.0351 39.2361 27.385 39.8768C25.7446 40.5271 23.8567 40.8523 21.7213 40.8523ZM21.8524 27.0206C22.8521 27.0206 23.6966 26.7731 24.3857 26.278C25.0846 25.7733 25.6185 25.055 25.9873 24.1232C26.3659 23.1817 26.5551 22.0557 26.5551 20.7454C26.5551 19.435 26.3707 18.2994 26.0019 17.3384C25.633 16.3678 25.0992 15.6155 24.4003 15.0817C23.7014 14.5478 22.8521 14.2809 21.8524 14.2809C20.8332 14.2809 19.9742 14.5575 19.2753 15.1108C18.5764 15.6544 18.0474 16.4115 17.6883 17.3821C17.3292 18.3527 17.1496 19.4738 17.1496 20.7454C17.1496 22.0363 17.3292 23.1526 17.6883 24.0941C18.0571 25.0259 18.5861 25.749 19.2753 26.2635C19.9742 26.7682 20.8332 27.0206 21.8524 27.0206Z" fill="#170c41"/>
<path d="M40.5761 17.4986V32H38.7998V9.63636H40.5324V13.1744H40.7071C41.2313 12.0193 42.0709 11.0923 43.2259 10.3935C44.381 9.6946 45.7545 9.34517 47.3463 9.34517C48.8508 9.34517 50.1709 9.66548 51.3066 10.3061C52.4519 10.9467 53.3449 11.8591 53.9855 13.0433C54.6359 14.2178 54.961 15.6204 54.961 17.2511V32H53.1847V17.3239C53.1847 15.4214 52.6169 13.8926 51.4813 12.7376C50.3553 11.5728 48.8654 10.9904 47.0115 10.9904C45.769 10.9904 44.6625 11.2622 43.6918 11.8057C42.7212 12.3493 41.9593 13.1113 41.406 14.0916C40.8527 15.0623 40.5761 16.1979 40.5761 17.4986Z" fill="#170c41"/>
<path d="M71.064 32.4659C69.0451 32.4659 67.2882 31.966 65.7934 30.9663C64.2986 29.9665 63.1436 28.5979 62.3282 26.8604C61.5129 25.123 61.1052 23.1429 61.1052 20.9201C61.1052 18.6876 61.5129 16.6978 62.3282 14.9506C63.1533 13.2035 64.2841 11.8252 65.7206 10.8157C67.1572 9.80622 68.7976 9.30149 70.6418 9.30149C71.8939 9.30149 73.0781 9.55385 74.1943 10.0586C75.3203 10.5536 76.3103 11.2719 77.1645 12.2134C78.0284 13.1549 78.703 14.2906 79.1883 15.6204C79.6833 16.9502 79.9308 18.445 79.9308 20.1048V21.2113H62.2263V19.5952H78.1546C78.1546 17.9742 77.8245 16.5134 77.1645 15.2127C76.5045 13.912 75.6066 12.8783 74.471 12.1115C73.3353 11.3447 72.0589 10.9613 70.6418 10.9613C69.1567 10.9613 67.8318 11.3787 66.667 12.2134C65.5119 13.0385 64.5947 14.1547 63.9152 15.5621C63.2455 16.9696 62.896 18.542 62.8669 20.2795V21.0075C62.8669 22.8711 63.1921 24.5454 63.8424 26.0305C64.5025 27.5059 65.444 28.6755 66.667 29.5394C67.89 30.3936 69.3557 30.8207 71.064 30.8207C72.287 30.8207 73.3305 30.6168 74.1943 30.2092C75.0679 29.7918 75.7813 29.287 76.3346 28.695C76.8879 28.1029 77.3053 27.5302 77.5867 26.9769L79.2029 27.6321C78.8631 28.3795 78.3341 29.1269 77.6159 29.8743C76.9073 30.612 76.0046 31.2283 74.9078 31.7234C73.8206 32.2184 72.5394 32.4659 71.064 32.4659Z" fill="#170c41"/>
<path d="M90.9234 32L84.2259 9.63636H86.0896L91.8552 29.3938H92.0154L97.7955 9.63636H99.6446L105.41 29.3793H105.556L111.321 9.63636H113.185L106.488 32H104.508L98.8002 12.5337H98.6109L92.9035 32H90.9234Z" fill="#170c41"/>
<path d="M132.928 14.4556L131.283 14.8924C131.021 14.0771 130.647 13.3733 130.162 12.7812C129.676 12.1892 129.065 11.733 128.327 11.4126C127.599 11.0826 126.726 10.9176 125.706 10.9176C124.066 10.9176 122.722 11.3253 121.673 12.1406C120.635 12.956 120.116 14.0188 120.116 15.3292C120.116 16.3969 120.47 17.2802 121.178 17.979C121.887 18.6682 122.969 19.1923 124.425 19.5515L127.861 20.4105C129.628 20.8473 130.958 21.5559 131.851 22.5362C132.744 23.5069 133.19 24.7153 133.19 26.1616C133.19 27.3943 132.855 28.4863 132.185 29.4375C131.516 30.3887 130.589 31.1313 129.405 31.6651C128.23 32.199 126.861 32.4659 125.299 32.4659C123.212 32.4659 121.499 31.9806 120.159 31.0099C118.82 30.0296 117.961 28.627 117.582 26.8022L119.286 26.3654C119.606 27.8214 120.271 28.9328 121.28 29.6996C122.299 30.4567 123.634 30.8352 125.284 30.8352C127.109 30.8352 128.58 30.4033 129.696 29.5394C130.822 28.6755 131.385 27.569 131.385 26.2198C131.385 25.1909 131.055 24.3222 130.395 23.6136C129.735 22.9051 128.735 22.3858 127.395 22.0557L123.828 21.1822C122.003 20.7357 120.635 20.0222 119.722 19.0419C118.81 18.0518 118.354 16.8337 118.354 15.3874C118.354 14.1838 118.669 13.1258 119.3 12.2134C119.931 11.301 120.8 10.5876 121.906 10.0731C123.013 9.55871 124.28 9.30149 125.706 9.30149C127.599 9.30149 129.142 9.74798 130.336 10.641C131.53 11.534 132.394 12.8055 132.928 14.4556Z" fill="#170c41"/>
</svg>
